<?xml version="1.0" encoding="utf-8"?>
<!-- Svg Vector Icons : http://www.onlinewebfonts.com/icon -->
<!DOCTYPE svg PUBLIC "-//W3C//DTD SVG 1.1//EN" "http://www.w3.org/Graphics/SVG/1.1/DTD/svg11.dtd">
<svg version="1.1" xmlns="http://www.w3.org/2000/svg" xmlns:xlink="http://www.w3.org/1999/xlink" x="0px" y="0px" viewBox="0 0 1000 1000" enable-background="new 0 0 1000 1000" xml:space="preserve">
<metadata> Svg Vector Icons : http://www.onlinewebfonts.com/icon </metadata>
<g><path d="M497.9,990c-25.3,0-42.2-16.9-42.2-42.2V685.9c0-25.3,16.9-42.2,42.2-42.2c25.3,0,42.2,16.9,42.2,42.2v261.9C540.1,968.9,523.2,990,497.9,990z"/><path d="M497.9,728.1C240.2,728.1,29,516.9,29,259.2V128.3c0-12.7,8.4-29.6,21.1-38c12.7-8.4,29.6-8.4,42.2,0l156.3,80.3c25.3,12.7,63.4,8.4,84.5-12.7L468.3,22.7c16.9-16.9,42.2-16.9,59.1,0l139.4,139.4c12.7,12.7,33.8,21.1,50.7,21.1l0,0c12.7,0,21.1-4.2,33.8-8.4l156.3-80.3c12.7-8.5,29.6-4.2,42.2,0c12.7,8.4,21.1,21.1,21.1,38v130.9C966.8,516.9,755.6,728.1,497.9,728.1z M113.5,200.1v59.1c0,211.2,173.2,384.4,384.4,384.4c211.2,0,384.4-173.2,384.4-384.4v-59.1l-92.9,46.5c-21.1,12.7-46.5,16.9-71.8,16.9l0,0c-42.2,0-80.3-16.9-109.8-46.5L497.9,111.4L392.3,217c-46.5,46.5-122.5,59.1-181.6,29.6L113.5,200.1z"/><path d="M366.9,943.5c-25.3-33.8-67.6-76-122.5-105.6c-54.9-33.8-114.1-46.5-156.3-54.9c-21.1-4.2-38,21.1-21.1,42.2c25.3,33.8,67.6,76,122.5,105.6c54.9,33.8,114.1,46.5,156.3,54.9C366.9,985.8,379.6,960.4,366.9,943.5z"/><path d="M903.4,783c-42.2,8.4-97.2,21.1-156.3,54.9c-54.9,33.8-97.2,76-122.5,105.6c-12.7,16.9,0,42.2,21.1,42.2c42.2-8.4,97.2-21.1,156.3-54.9c54.9-33.8,97.2-76,122.5-105.6C941.4,804.1,924.5,778.8,903.4,783z"/></g>
</svg>